<svg width="40" height="35" viewBox="0 0 40 35" fill="none" xmlns="http://www.w3.org/2000/svg">
<path fill-rule="evenodd" clip-rule="evenodd" d="M17.1136 3.0215H16.977C16.7671 3.00878 16.5571 3.0037 16.3471 2.99861H16.3471H16.3269H15.8918C15.4946 2.99861 15.0898 3.00878 14.6876 3.02912C14.6573 3.02692 14.6269 3.02692 14.5966 3.02912C10.9522 3.23561 7.38171 4.14649 4.08049 5.7119L3.6479 5.92042V28.0616L4.65979 27.7183C5.54773 27.4131 6.49384 27.1385 7.47285 26.8842C10.1193 26.2048 12.8367 25.8437 15.568 25.8085V28.7176C15.2062 28.7202 14.8546 28.7303 14.503 28.7481H14.4195C12.3175 28.8634 10.2317 29.1837 8.19129 29.7043C5.60716 30.3512 3.11433 31.3226 0.771606 32.5956V4.19886C3.20469 2.77973 5.82533 1.71385 8.55557 1.03294C10.9527 0.414027 13.4169 0.0962821 15.8918 0.0869751H16.3193C16.8303 0.0996897 17.3287 0.122576 17.7967 0.158177C19.0297 0.244751 20.2528 0.439603 21.4521 0.740503V3.60382C20.2874 3.33248 19.1032 3.15393 17.9105 3.06981C17.8863 3.06777 17.8621 3.0657 17.8379 3.06363C17.5911 3.04258 17.344 3.0215 17.1136 3.0215ZM22.1528 5.94836C22.7877 5.99667 23.4455 6.01956 24.1108 6.01956C26.7125 6.01005 29.3031 5.67781 31.8239 5.03037C34.4068 4.38094 36.8986 3.40875 39.2411 2.13654V30.0272C36.8067 31.4455 34.1853 32.5113 31.4546 33.1931C29.0571 33.8097 26.5931 34.1265 24.1184 34.1365C22.2433 34.1517 20.3737 33.9313 18.553 33.4805V5.40926C18.983 5.50844 19.4257 5.59998 19.876 5.67627C20.6147 5.80087 21.3939 5.89242 22.1528 5.94836ZM36.3471 6.16451L35.3352 6.50526C34.4042 6.81804 33.4657 7.09775 32.5221 7.34696C29.7749 8.05293 26.9514 8.41507 24.1158 8.42515C23.4556 8.42515 22.8485 8.40735 22.2616 8.36921L21.4546 8.31581V28.4048V31.0927L22.1477 31.1537C22.7903 31.2096 23.4531 31.2376 24.1209 31.2376C26.3544 31.2281 28.5781 30.9403 30.7412 30.3806C32.5223 29.9339 34.2552 29.3112 35.9145 28.5218L36.3471 28.3133V6.16451Z" fill="#AFB1B8"/>
</svg>
